<svg xmlns="http://www.w3.org/2000/svg" viewBox="0 0 800 800"><defs><radialGradient id="r" cx="44%" cy="48%"><stop offset="0" stop-color="#f9c889"/><stop offset=".5" stop-color="#b7462f"/><stop offset="1" stop-color="#381214"/></radialGradient><radialGradient id="h"><stop offset="0" stop-color="#fff600" stop-opacity=".95"/><stop offset=".35" stop-color="#ff6600" stop-opacity=".8"/><stop offset="1" stop-color="#ed174c" stop-opacity="0"/></radialGradient></defs><rect width="800" height="800" fill="#0e1118"/><circle cx="400" cy="400" r="350" fill="url(#r)"/><g fill="none" stroke="#571714" stroke-width="18" stroke-linecap="round" opacity=".85"><path d="M370 400C284 353 213 314 99 281M370 400C273 436 180 488 80 564M370 400C413 296 437 196 461 81M370 400C473 436 574 495 699 571M370 400C484 357 586 320 707 273M370 400C342 521 329 626 310 741"/></g><circle cx="450" cy="302" r="182" fill="url(#h)"/><circle cx="282" cy="492" r="145" fill="url(#h)"/><circle cx="400" cy="400" r="350" fill="none" stroke="#e38e69" stroke-width="7" opacity=".5"/></svg>
